 Eragon 2006 BRRip H264 AAC-MS.mp4
      Format : MPEG-4
      Format profile : Base Media
      Codec ID : isom
      File size : 1.54 GiB
      Duration : 1h 44mn
      Overall bit rate : 2 118 Kbps
      
   Video #1
      Format : AVC
      Format/Info : Advanced Video Codec
      Format profile : High@L4.1
      Format settings, CABAC : Yes
      Format settings, ReFrames : 3 frames
      Codec ID : avc1
      Codec ID/Info : Advanced Video Coding
      Duration : 1h 44mn
      Bit rate mode : Variable
      Bit rate : 1 800 Kbps
      Maximum bit rate : 6 354 Kbps
      Width : 1 280 pixels
      Height : 544 pixels
      Display aspect ratio : 2.35
      Frame rate mode : Constant
      Frame rate : 23.976 fps
      Resolution : 24 bits
      Colorimetry : 4:2:0
      Scan type : Progressive
      Bits/(Pixel*Frame) : 0.108
      Stream size : 1.31 GiB (85%)
      Writing library : x264 core 65
      
   Audio #2
      Format : AAC
      Format/Info : Advanced Audio Codec
      Format version : Version 4
      Format profile : LC
      Format settings, SBR : No
      Codec ID : 40
      Duration : 1h 44mn
      Bit rate mode : Variable
      Bit rate : 315 Kbps
      Maximum bit rate : 385 Kbps
      Channel(s) : 6 channels
      Channel positions : Front: L C R, Rear: L R, LFE
      Sampling rate : 48.0 KHz
      Resolution : 16 bits
      Stream size : 234 MiB (15%)

SCREEN:
 
http://i865.photobucket.com/albums/ab211/revisionx/Screenshot/vlcsnap-109919.jpg
 
http://i865.photobucket.com/albums/ab211/revisionx/Screenshot/vlcsnap-106535.jpg
 
http://i865.photobucket.com/albums/ab211/revisionx/Screenshot/vlcsnap-107111.jpg